<svg width="31" height="44" viewBox="0 0 31 44" fill="none" xmlns="http://www.w3.org/2000/svg">
<mask id="path-1-inside-1_51_423" fill="white">
<path d="M-5.96007e-07 29C-4.23799e-07 27.0302 0.400919 25.0796 1.17987 23.2597C1.95881 21.4399 3.10054 19.7863 4.53984 18.3934C5.97916 17.0005 7.68786 15.8956 9.56841 15.1418C11.449 14.388 13.4645 14 15.5 14C17.5355 14 19.551 14.388 21.4316 15.1418C23.3121 15.8956 25.0208 17.0005 26.4602 18.3934C27.8995 19.7863 29.0412 21.4399 29.8201 23.2598C30.5991 25.0796 31 27.0302 31 29L15.5 29L-5.96007e-07 29Z"/>
</mask>
<path d="M-5.96007e-07 29C-4.23799e-07 27.0302 0.400919 25.0796 1.17987 23.2597C1.95881 21.4399 3.10054 19.7863 4.53984 18.3934C5.97916 17.0005 7.68786 15.8956 9.56841 15.1418C11.449 14.388 13.4645 14 15.5 14C17.5355 14 19.551 14.388 21.4316 15.1418C23.3121 15.8956 25.0208 17.0005 26.4602 18.3934C27.8995 19.7863 29.0412 21.4399 29.8201 23.2598C30.5991 25.0796 31 27.0302 31 29L15.5 29L-5.96007e-07 29Z" stroke="white" stroke-width="4" mask="url(#path-1-inside-1_51_423)"/>
<path d="M11 5C11 2.87842 12.9229 1 15.5 1C18.0771 1 20 2.87842 20 5C20 7.12158 18.0771 9 15.5 9C12.9229 9 11 7.12158 11 5Z" stroke="white" stroke-width="2"/>
</svg>
