<svg width="13" height="21" viewBox="0 0 13 21" fill="none" xmlns="http://www.w3.org/2000/svg">
<path d="M1.77904 19.1246C1.5781 19.7274 1.8795 20.3639 2.44888 20.5984C2.58276 20.6319 2.71687 20.6655 2.85075 20.6655C3.31968 20.6655 3.75519 20.3641 3.92272 19.9286L5.09518 16.7466L3.58795 14.3015L1.77904 19.1246Z" fill="white"/>
<path d="M6.53542 12.8271L8.1097 8.27175C8.17676 8.3388 8.24358 8.43927 8.31064 8.50633C8.74615 9.07572 9.38261 9.4442 10.0525 9.61167L11.7607 9.98013C12.2966 10.0806 12.8326 9.74555 12.9331 9.2098C13.0336 8.67382 12.6985 8.13783 12.1628 8.03734L10.4546 7.66888C10.22 7.60183 9.98565 7.46795 9.81811 7.26701C8.07629 5.08994 7.74146 4.95578 7.30596 4.9224L5.69825 4.82194C5.46367 4.82194 5.19591 4.78852 2.8847 5.69275C2.31531 5.92733 1.81273 6.29555 1.4779 6.7981L0.171344 8.67353C-0.13006 9.10905 -0.0295918 9.7455 0.439336 10.0469C0.606861 10.1808 0.807796 10.2144 1.00873 10.2144C1.31013 10.2144 1.6452 10.0805 1.81267 9.77891L3.08555 7.93661C3.21943 7.76909 3.38696 7.63521 3.58789 7.53474C3.78882 7.46769 3.95635 7.40086 4.09022 7.33381L3.31989 9.97981C3.0519 10.8506 3.18601 11.7884 3.68835 12.559L8.37757 20.0954C8.57851 20.4305 8.94696 20.6314 9.34881 20.6314C9.54975 20.6314 9.75069 20.5644 9.95161 20.4639C10.4876 20.1289 10.6551 19.4256 10.3201 18.8896L6.53542 12.8271Z" fill="white"/>
<path d="M7.03477 0.0129773C8.23007 0.142885 9.09365 1.21743 8.9635 2.41273C8.83335 3.60804 7.75881 4.47162 6.5635 4.34146C5.3682 4.21156 4.50462 3.13701 4.63477 1.94171C4.76491 0.746404 5.83947 -0.117176 7.03477 0.0129773Z" fill="white"/>
</svg>
