<svg width="11" height="16" viewBox="0 0 11 16" fill="none" xmlns="http://www.w3.org/2000/svg">
<path d="M1.37746 14.8069C1.22189 15.2736 1.45524 15.7664 1.89608 15.9481C1.99973 15.9739 2.10356 16 2.20722 16C2.57027 16 2.90746 15.7666 3.03717 15.4294L3.94493 12.9658L2.77798 11.0728L1.37746 14.8069Z" fill="#21A8AE"/>
<path d="M5.05995 9.93115L6.27881 6.40424C6.33073 6.45616 6.38246 6.53394 6.43438 6.58586C6.77157 7.0267 7.26434 7.31199 7.78295 7.44165L9.1055 7.72693C9.52047 7.80471 9.93546 7.54531 10.0133 7.13051C10.091 6.71554 9.83163 6.30056 9.41684 6.22276L8.09429 5.93748C7.91267 5.88556 7.73124 5.78191 7.60151 5.62634C6.25294 3.94077 5.9937 3.8369 5.65652 3.81106L4.41178 3.73328C4.23016 3.73328 4.02285 3.70741 2.23343 4.40749C1.79259 4.58911 1.40348 4.8742 1.14424 5.26329L0.13266 6.71532C-0.100697 7.0525 -0.022911 7.54527 0.340149 7.77862C0.469852 7.88228 0.625424 7.90833 0.78099 7.90833C1.01435 7.90833 1.27377 7.80467 1.40343 7.57114L2.38894 6.14477C2.4926 6.01506 2.6223 5.91141 2.77787 5.83362C2.93344 5.78171 3.06314 5.72997 3.16679 5.67805L2.57037 7.72668C2.36288 8.4009 2.46672 9.12698 2.85565 9.72358L6.4862 15.5586C6.64177 15.818 6.92704 15.9735 7.23817 15.9735C7.39374 15.9735 7.54931 15.9216 7.70488 15.8438C8.11985 15.5844 8.24957 15.0399 7.99015 14.625L5.05995 9.93115Z" fill="#21A8AE"/>
<path d="M5.44658 0.0100475C6.37202 0.110627 7.04063 0.942577 6.93987 1.86802C6.8391 2.79347 6.00715 3.46208 5.08171 3.36131C4.15626 3.26073 3.48765 2.42878 3.58842 1.50334C3.68918 0.577892 4.52113 -0.0907215 5.44658 0.0100475Z" fill="#21A8AE"/>
</svg>
