<svg width="14" height="14" viewBox="0 0 14 14" fill="none" xmlns="http://www.w3.org/2000/svg">
<g clip-path="url(#clip0_1_416)">
<path d="M10.2667 0C8.20819 0 6.53333 1.67487 6.53333 3.73333C6.53333 5.08947 7.24126 6.30233 8.39999 6.96547V7.46667C8.39999 7.59033 8.44899 7.70933 8.53672 7.7966L9.69873 8.9586L9.38232 9.59093C9.31652 9.72253 9.31652 9.877 9.38232 10.0086L9.74493 10.7333L9.38279 11.4581C9.35013 11.5225 9.33333 11.5943 9.33333 11.6667V12.6C9.33333 12.7237 9.38232 12.8427 9.47006 12.9299L10.4034 13.8633C10.4944 13.9543 10.6139 14 10.7333 14C10.8528 14 10.9723 13.9543 11.0633 13.8633L11.9966 12.9299C12.0843 12.8427 12.1333 12.7237 12.1333 12.6V6.96547C13.2921 6.30233 14 5.08947 14 3.73333C14 1.67487 12.3251 0 10.2667 0ZM10.283 3.96667C9.76873 3.976 9.34266 3.5644 9.33333 3.04967C9.32446 2.5354 9.73606 2.10933 10.2503 2.1C10.7646 2.09067 11.1907 2.50227 11.2 3.017C11.2089 3.53127 10.7973 3.95733 10.283 3.96667Z" fill="white"/>
<path d="M7.93333 7.46675C7.93333 7.57875 7.952 7.69542 7.994 7.79808C7.87267 7.83075 7.74667 7.85875 7.62067 7.88208C7.574 7.90075 7.518 7.91008 7.46667 7.91008C7.154 7.94742 6.71067 7.93808 6.33267 7.85875L2.198 11.9981C2.10933 12.0821 1.99267 12.1334 1.86667 12.1334H0.466667C0.21 12.1334 0 11.9234 0 11.6668V10.2668C0 10.1408 0.0513333 10.0241 0.135333 9.93542L0.602 9.46875C0.690667 9.38475 0.807333 9.33342 0.933333 9.33342H1.53067L1.89 8.25075C1.93667 8.11542 2.04867 8.00342 2.184 7.95675L3.178 7.62542L2.814 6.17875C2.772 6.02008 2.81867 5.85208 2.93533 5.73542L3.472 5.20342C3.11267 3.91542 3.472 2.51542 4.424 1.55875C4.956 1.02675 5.628 0.672085 6.36533 0.532085C6.40267 0.518085 6.44 0.508751 6.468 0.504084C6.83667 0.448084 7.21 0.452751 7.574 0.513418C6.65467 1.28342 6.06667 2.44075 6.06667 3.73342C6.06667 5.16608 6.75733 6.44942 7.93333 7.22408V7.46675Z" fill="white"/>
</g>
<defs>
<clipPath id="clip0_1_416">
<rect width="14" height="14" fill="white"/>
</clipPath>
</defs>
</svg>
