<svg width="13" height="16" viewBox="0 0 13 16" fill="none" xmlns="http://www.w3.org/2000/svg">
<path d="M6.5 0C2.91023 0 0 2.91928 0 6.52021C0 10.8081 4.22618 12.8608 4.75564 13.3386C5.29632 13.8264 5.74305 14.92 5.92327 15.54C6.01073 15.8411 6.25655 15.9935 6.5 16C6.74405 15.9929 6.98927 15.8406 7.07673 15.54C7.25695 14.92 7.70368 13.827 8.24436 13.3386C8.77382 12.8608 13 10.8081 13 6.52021C13 2.91928 10.0898 0 6.5 0ZM6.5 8.29845C5.52086 8.29845 4.72727 7.50239 4.72727 6.52021C4.72727 5.53803 5.52086 4.74197 6.5 4.74197C7.47914 4.74197 8.27273 5.53803 8.27273 6.52021C8.27273 7.50239 7.47914 8.29845 6.5 8.29845Z" fill="#21A8AE"/>
</svg>
