<svg width="25" height="25" viewBox="0 0 25 25" fill="none" xmlns="http://www.w3.org/2000/svg">
<path d="M10.0036 0C8.37886 0 7.00515 1.04844 6.48805 2.5H1.266C1.1006 2.49766 0.936376 2.52826 0.782884 2.59003C0.629393 2.65179 0.48969 2.74349 0.371896 2.8598C0.254101 2.97611 0.160565 3.1147 0.0967208 3.26752C0.0328771 3.42034 0 3.58434 0 3.75C0 3.91566 0.0328771 4.07966 0.0967208 4.23248C0.160565 4.3853 0.254101 4.52389 0.371896 4.6402C0.48969 4.75651 0.629393 4.84821 0.782884 4.90997C0.936376 4.97174 1.1006 5.00234 1.266 5H6.48805C7.00515 6.45156 8.37886 7.5 10.0036 7.5C12.0681 7.5 13.7482 5.8175 13.7482 3.75C13.7482 1.6825 12.0681 0 10.0036 0ZM17.4929 2.5C17.3275 2.49766 17.1633 2.52826 17.0098 2.59003C16.8563 2.65179 16.7166 2.74349 16.5988 2.8598C16.481 2.97611 16.3875 3.1147 16.3236 3.26752C16.2598 3.42034 16.2269 3.58434 16.2269 3.75C16.2269 3.91566 16.2598 4.07966 16.3236 4.23248C16.3875 4.3853 16.481 4.52389 16.5988 4.6402C16.7166 4.75651 16.8563 4.84821 17.0098 4.90997C17.1633 4.97174 17.3275 5.00234 17.4929 5H23.734C23.8994 5.00234 24.0636 4.97174 24.2171 4.90997C24.3706 4.84821 24.5103 4.75651 24.6281 4.6402C24.7459 4.52389 24.8394 4.3853 24.9033 4.23248C24.9671 4.07966 25 3.91566 25 3.75C25 3.58434 24.9671 3.42034 24.9033 3.26752C24.8394 3.1147 24.7459 2.97611 24.6281 2.8598C24.5103 2.74349 24.3706 2.65179 24.2171 2.59003C24.0636 2.52826 23.8994 2.49766 23.734 2.5H17.4929ZM16.2447 8.75C14.62 8.75 13.2463 9.79844 12.7292 11.25H1.266C1.1006 11.2477 0.936376 11.2783 0.782884 11.34C0.629393 11.4018 0.48969 11.4935 0.371896 11.6098C0.254101 11.7261 0.160565 11.8647 0.0967208 12.0175C0.0328771 12.1703 0 12.3343 0 12.5C0 12.6657 0.0328771 12.8297 0.0967208 12.9825C0.160565 13.1353 0.254101 13.2739 0.371896 13.3902C0.48969 13.5065 0.629393 13.5982 0.782884 13.66C0.936376 13.7217 1.1006 13.7523 1.266 13.75H12.7292C13.2463 15.2016 14.62 16.25 16.2447 16.25C18.3092 16.25 19.9893 14.5675 19.9893 12.5C19.9893 10.4325 18.3092 8.75 16.2447 8.75ZM23.734 11.25C23.5686 11.2477 23.4044 11.2783 23.2509 11.34C23.0974 11.4018 22.9577 11.4935 22.8399 11.6098C22.7221 11.7261 22.6286 11.8647 22.5647 12.0175C22.5009 12.1703 22.468 12.3343 22.468 12.5C22.468 12.6657 22.5009 12.8297 22.5647 12.9825C22.6286 13.1353 22.7221 13.2739 22.8399 13.3902C22.9577 13.5065 23.0974 13.5982 23.2509 13.66C23.4044 13.7217 23.5686 13.7523 23.734 13.75C23.8994 13.7523 24.0636 13.7217 24.2171 13.66C24.3706 13.5982 24.5103 13.5065 24.6281 13.3902C24.7459 13.2739 24.8394 13.1353 24.9033 12.9825C24.9671 12.8297 25 12.6657 25 12.5C25 12.3343 24.9671 12.1703 24.9033 12.0175C24.8394 11.8647 24.7459 11.7261 24.6281 11.6098C24.5103 11.4935 24.3706 11.4018 24.2171 11.34C24.0636 11.2783 23.8994 11.2477 23.734 11.25ZM6.25889 17.5C4.63419 17.5 3.26049 18.5484 2.74339 20H1.266C1.1006 19.9977 0.936376 20.0283 0.782884 20.09C0.629393 20.1518 0.48969 20.2435 0.371896 20.3598C0.254101 20.4761 0.160565 20.6147 0.0967208 20.7675C0.0328771 20.9203 0 21.0843 0 21.25C0 21.4157 0.0328771 21.5797 0.0967208 21.7325C0.160565 21.8853 0.254101 22.0239 0.371896 22.1402C0.48969 22.2565 0.629393 22.3482 0.782884 22.41C0.936376 22.4717 1.1006 22.5023 1.266 22.5H2.74339C3.26049 23.9516 4.63419 25 6.25889 25C8.32345 25 10.0036 23.3175 10.0036 21.25C10.0036 19.1825 8.32345 17.5 6.25889 17.5ZM13.7482 20C13.5828 19.9977 13.4186 20.0283 13.2651 20.09C13.1116 20.1518 12.9719 20.2435 12.8541 20.3598C12.7363 20.4761 12.6428 20.6147 12.5789 20.7675C12.5151 20.9203 12.4822 21.0843 12.4822 21.25C12.4822 21.4157 12.5151 21.5797 12.5789 21.7325C12.6428 21.8853 12.7363 22.0239 12.8541 22.1402C12.9719 22.2565 13.1116 22.3482 13.2651 22.41C13.4186 22.4717 13.5828 22.5023 13.7482 22.5H23.734C23.8994 22.5023 24.0636 22.4717 24.2171 22.41C24.3706 22.3482 24.5103 22.2565 24.6281 22.1402C24.7459 22.0239 24.8394 21.8853 24.9033 21.7325C24.9671 21.5797 25 21.4157 25 21.25C25 21.0843 24.9671 20.9203 24.9033 20.7675C24.8394 20.6147 24.7459 20.4761 24.6281 20.3598C24.5103 20.2435 24.3706 20.1518 24.2171 20.09C24.0636 20.0283 23.8994 19.9977 23.734 20H13.7482Z" fill="#21A8AE"/>
</svg>
